<svg width="56" height="36" viewBox="0 0 56 36" fill="none" xmlns="http://www.w3.org/2000/svg">
<g clip-path="url(#clip0)">
<path d="M54.8173 35.9168H1.88784C1.36588 35.9168 0.942627 35.4936 0.942627 34.9716V0.945459C0.942627 0.423492 1.36588 0.000244141 1.88784 0.000244141H54.8174C55.3394 0.000244141 55.7627 0.423492 55.7627 0.945459V34.9716C55.7625 35.4937 55.3393 35.9168 54.8173 35.9168Z" fill="#F5F5F5"/>
<path d="M55.7625 15.1227H31.1881V0H25.517V15.1227H0.942627V20.7938H25.517V35.9165H31.1881V20.7938H55.7625V15.1227Z" fill="#FF4B55"/>
<path d="M17.0107 6.26971C16.0744 6.36383 15.1573 6.45816 14.2388 6.55259C14.3333 5.63404 14.4275 4.71688 14.5218 3.78076C13.6632 3.89179 12.7969 3.89179 11.9383 3.78076C12.0324 4.71688 12.1268 5.63415 12.2213 6.55259C11.3027 6.45827 10.3855 6.36394 9.44946 6.26971C9.56049 7.1282 9.56049 7.99462 9.44946 8.8531C10.3857 8.75899 11.3028 8.66466 12.2213 8.57022C12.1269 9.48878 12.0325 10.4059 11.9383 11.3421C12.7969 11.231 13.6632 11.231 14.5218 11.3421C14.4277 10.4059 14.3333 9.48867 14.2388 8.57022C15.1574 8.66455 16.0745 8.75888 17.0107 8.8531C16.8997 7.99462 16.8997 7.1281 17.0107 6.26971Z" fill="#FF4B55"/>
<path d="M47.2558 6.26971C46.3195 6.36383 45.4024 6.45816 44.4839 6.55259C44.5784 5.63404 44.6726 4.71688 44.7669 3.78076C43.9083 3.89179 43.042 3.89179 42.1834 3.78076C42.2775 4.71688 42.3719 5.63415 42.4664 6.55259C41.5479 6.45827 40.6306 6.36394 39.6946 6.26971C39.8056 7.1282 39.8056 7.99462 39.6946 8.8531C40.6308 8.75899 41.548 8.66466 42.4664 8.57022C42.372 9.48878 42.2776 10.4059 42.1834 11.3421C43.042 11.231 43.9083 11.231 44.7669 11.3421C44.6728 10.4059 44.5784 9.48867 44.4839 8.57022C45.4025 8.66455 46.3197 8.75888 47.2558 8.8531C47.1448 7.99462 47.1448 7.1281 47.2558 6.26971Z" fill="#FF4B55"/>
<path d="M17.0107 27.0632C16.0744 27.1573 15.1573 27.2517 14.2388 27.3461C14.3333 26.4276 14.4275 25.5104 14.5218 24.5743C13.6632 24.6853 12.7969 24.6853 11.9383 24.5743C12.0324 25.5104 12.1268 26.4277 12.2213 27.3461C11.3027 27.2518 10.3855 27.1575 9.44946 27.0632C9.56049 27.9217 9.56049 28.7881 9.44946 29.6466C10.3857 29.5525 11.3028 29.4582 12.2213 29.3637C12.1269 30.2823 12.0325 31.1995 11.9383 32.1356C12.7969 32.0245 13.6632 32.0245 14.5218 32.1356C14.4277 31.1995 14.3333 30.2822 14.2388 29.3637C15.1574 29.4581 16.0745 29.5524 17.0107 29.6466C16.8997 28.7882 16.8997 27.9217 17.0107 27.0632Z" fill="#FF4B55"/>
<path d="M47.2558 27.0632C46.3195 27.1573 45.4024 27.2517 44.4839 27.3461C44.5784 26.4276 44.6726 25.5104 44.7669 24.5743C43.9083 24.6853 43.042 24.6853 42.1834 24.5743C42.2775 25.5104 42.3719 26.4277 42.4664 27.3461C41.5479 27.2518 40.6306 27.1575 39.6946 27.0632C39.8056 27.9217 39.8056 28.7881 39.6946 29.6466C40.6308 29.5525 41.548 29.4582 42.4664 29.3637C42.372 30.2823 42.2776 31.1995 42.1834 32.1356C43.042 32.0245 43.9083 32.0245 44.7669 32.1356C44.6728 31.1995 44.5784 30.2822 44.4839 29.3637C45.4025 29.4581 46.3197 29.5524 47.2558 29.6466C47.1448 28.7882 47.1448 27.9217 47.2558 27.0632Z" fill="#FF4B55"/>
</g>
<defs>
<clipPath id="clip0">
<rect width="54.82" height="35.9166" fill="white" transform="translate(0.942627)"/>
</clipPath>
</defs>
</svg>
