<svg width="56" height="36" viewBox="0 0 56 36" fill="none" xmlns="http://www.w3.org/2000/svg">
<g clip-path="url(#clip0)">
<path d="M55.5864 -0.081665H0.766357V36.4654H55.5864V-0.081665Z" fill="#F0F0F0"/>
<path d="M31.6026 -0.0821533H24.7501V14.7649H0.766357V21.6174H24.7501V36.4644H31.6026V21.6174H55.5864V14.7649H31.6026V-0.0821533Z" fill="#D80027"/>
<path d="M42.9294 24.5473L55.5868 31.5792V24.5473H42.9294Z" fill="#0052B4"/>
<path d="M34.1357 24.5473L55.5871 36.4646V33.0947L40.2018 24.5473H34.1357Z" fill="#0052B4"/>
<path d="M49.8729 36.4648L34.1355 27.721V36.4648H49.8729Z" fill="#0052B4"/>
<path d="M34.1355 24.5473L55.5868 36.4646V33.0947L40.2016 24.5473H34.1355Z" fill="#F0F0F0"/>
<path d="M34.1355 24.5473L55.5868 36.4646V33.0947L40.2016 24.5473H34.1355Z" fill="#D80027"/>
<path d="M10.4392 24.5473L0.766357 29.9211V24.5473H10.4392Z" fill="#0052B4"/>
<path d="M22.2178 26.0627V36.4646H3.49585L22.2178 26.0627Z" fill="#0052B4"/>
<path d="M16.1516 24.5473L0.766357 33.0947V36.4646L22.2177 24.5473H16.1516Z" fill="#D80027"/>
<path d="M13.4237 11.8353L0.766357 4.80334V11.8353H13.4237Z" fill="#0052B4"/>
<path d="M22.2177 11.8352L0.766357 -0.0821533V3.28778L16.1516 11.8352H22.2177Z" fill="#0052B4"/>
<path d="M6.48022 -0.0821533L22.2176 8.66164V-0.0821533H6.48022Z" fill="#0052B4"/>
<path d="M22.2177 11.8352L0.766357 -0.0821533V3.28778L16.1516 11.8352H22.2177Z" fill="#F0F0F0"/>
<path d="M22.2177 11.8352L0.766357 -0.0821533V3.28778L16.1516 11.8352H22.2177Z" fill="#D80027"/>
<path d="M45.9141 11.8358L55.5869 6.46191V11.8358H45.9141Z" fill="#0052B4"/>
<path d="M34.1355 10.3203V-0.081665H52.8575L34.1355 10.3203Z" fill="#0052B4"/>
<path d="M40.2016 11.8352L55.5868 3.28778V-0.0821533L34.1355 11.8352H40.2016Z" fill="#D80027"/>
</g>
<defs>
<clipPath id="clip0">
<rect width="54.82" height="35.9166" fill="white" transform="translate(0.766357)"/>
</clipPath>
</defs>
</svg>
