<svg width="30" height="19" viewBox="0 0 30 19" fill="none" xmlns="http://www.w3.org/2000/svg">
<g clip-path="url(#clip0)">
<path d="M29.245 -0.0432129H0.244995V19.2903H29.245V-0.0432129Z" fill="#F0F0F0"/>
<path d="M16.5575 -0.043457H12.9325V7.81067H0.244995V11.4357H12.9325V19.2898H16.5575V11.4357H29.245V7.81067H16.5575V-0.043457Z" fill="#FF4B55"/>
<path d="M22.5493 12.9856L29.2451 16.7055V12.9856H22.5493Z" fill="#0052B4"/>
<path d="M17.8972 12.9856L29.245 19.2899V17.5072L21.1062 12.9856H17.8972Z" fill="#0052B4"/>
<path d="M26.2224 19.29L17.8972 14.6645V19.29H26.2224Z" fill="#0052B4"/>
<path d="M17.8972 12.9856L29.245 19.2899V17.5072L21.1062 12.9856H17.8972Z" fill="#F0F0F0"/>
<path d="M17.8972 12.9856L29.245 19.2899V17.5072L21.1062 12.9856H17.8972Z" fill="#FF4B55"/>
<path d="M5.36197 12.9856L0.244995 15.8284V12.9856H5.36197Z" fill="#0052B4"/>
<path d="M11.5929 13.7872V19.2899H1.68884L11.5929 13.7872Z" fill="#0052B4"/>
<path d="M8.38386 12.9856L0.244995 17.5072V19.2899L11.5928 12.9856H8.38386Z" fill="#FF4B55"/>
<path d="M6.94077 6.26092L0.244995 2.54099V6.26092H6.94077Z" fill="#0052B4"/>
<path d="M11.5928 6.26087L0.244995 -0.043457V1.73925L8.38386 6.26087H11.5928Z" fill="#0052B4"/>
<path d="M3.2677 -0.043457L11.5929 4.58204V-0.043457H3.2677Z" fill="#0052B4"/>
<path d="M11.5928 6.26087L0.244995 -0.043457V1.73925L8.38386 6.26087H11.5928Z" fill="#F0F0F0"/>
<path d="M11.5928 6.26087L0.244995 -0.043457V1.73925L8.38386 6.26087H11.5928Z" fill="#FF4B55"/>
<path d="M24.1281 6.26116L29.245 3.41837V6.26116H24.1281Z" fill="#0052B4"/>
<path d="M17.8972 5.45948V-0.0432129H27.8012L17.8972 5.45948Z" fill="#0052B4"/>
<path d="M21.1062 6.26087L29.245 1.73925V-0.043457L17.8972 6.26087H21.1062Z" fill="#FF4B55"/>
</g>
<defs>
<clipPath id="clip0">
<rect width="29" height="19" fill="white" transform="translate(0.244995)"/>
</clipPath>
</defs>
</svg>
