<svg width="30" height="19" viewBox="0 0 30 19" fill="none" xmlns="http://www.w3.org/2000/svg">
<g clip-path="url(#clip0)">
<path d="M28.7449 19.0002H0.745018C0.468895 19.0002 0.244995 18.7763 0.244995 18.5002V0.500266C0.244995 0.224144 0.468895 0.000244141 0.745018 0.000244141H28.745C29.0211 0.000244141 29.245 0.224144 29.245 0.500266V18.5002C29.2449 18.7764 29.021 19.0002 28.7449 19.0002Z" fill="#F5F5F5"/>
<path d="M29.2449 7.99996H16.245V0H13.245V7.99996H0.244995V11H13.245V18.9999H16.245V11H29.2449V7.99996Z" fill="#FF4B55"/>
<path d="M8.74501 3.3167C8.24975 3.36648 7.76457 3.41638 7.2787 3.46634C7.32866 2.98042 7.37851 2.49524 7.42841 2.00003C6.97421 2.05877 6.51593 2.05877 6.06173 2.00003C6.11151 2.49524 6.16141 2.98048 6.21143 3.46634C5.72551 3.41644 5.24027 3.36654 4.74512 3.3167C4.80385 3.77084 4.80385 4.22918 4.74512 4.68332C5.24038 4.63353 5.72556 4.58363 6.21143 4.53367C6.16147 5.01959 6.11157 5.50478 6.06173 5.99998C6.51593 5.94125 6.97421 5.94125 7.42841 5.99998C7.37862 5.50478 7.32866 5.01954 7.2787 4.53367C7.76462 4.58357 8.24981 4.63348 8.74501 4.68332C8.68634 4.22918 8.68634 3.77078 8.74501 3.3167Z" fill="#FF4B55"/>
<path d="M24.745 3.3167C24.2497 3.36648 23.7646 3.41638 23.2787 3.46634C23.3287 2.98042 23.3785 2.49524 23.4284 2.00003C22.9742 2.05877 22.5159 2.05877 22.0617 2.00003C22.1115 2.49524 22.1614 2.98048 22.2114 3.46634C21.7255 3.41644 21.2403 3.36654 20.7451 3.3167C20.8039 3.77084 20.8039 4.22918 20.7451 4.68332C21.2404 4.63353 21.7256 4.58363 22.2114 4.53367C22.1615 5.01959 22.1116 5.50478 22.0617 5.99998C22.5159 5.94125 22.9742 5.94125 23.4284 5.99998C23.3786 5.50478 23.3287 5.01954 23.2787 4.53367C23.7646 4.58357 24.2498 4.63348 24.745 4.68332C24.6863 4.22918 24.6863 3.77078 24.745 3.3167Z" fill="#FF4B55"/>
<path d="M8.74501 14.3165C8.24975 14.3663 7.76457 14.4162 7.2787 14.4662C7.32866 13.9803 7.37851 13.4951 7.42841 12.9999C6.97421 13.0586 6.51593 13.0586 6.06173 12.9999C6.11151 13.4951 6.16141 13.9803 6.21143 14.4662C5.72551 14.4163 5.24027 14.3664 4.74512 14.3165C4.80385 14.7707 4.80385 15.229 4.74512 15.6832C5.24038 15.6334 5.72556 15.5835 6.21143 15.5335C6.16147 16.0194 6.11157 16.5046 6.06173 16.9998C6.51593 16.9411 6.97421 16.9411 7.42841 16.9998C7.37862 16.5046 7.32866 16.0194 7.2787 15.5335C7.76462 15.5834 8.24981 15.6333 8.74501 15.6832C8.68634 15.2291 8.68634 14.7707 8.74501 14.3165Z" fill="#FF4B55"/>
<path d="M24.745 14.3165C24.2497 14.3663 23.7646 14.4162 23.2787 14.4662C23.3287 13.9803 23.3785 13.4951 23.4284 12.9999C22.9742 13.0586 22.5159 13.0586 22.0617 12.9999C22.1115 13.4951 22.1614 13.9803 22.2114 14.4662C21.7255 14.4163 21.2403 14.3664 20.7451 14.3165C20.8039 14.7707 20.8039 15.229 20.7451 15.6832C21.2404 15.6334 21.7256 15.5835 22.2114 15.5335C22.1615 16.0194 22.1116 16.5046 22.0617 16.9998C22.5159 16.9411 22.9742 16.9411 23.4284 16.9998C23.3786 16.5046 23.3287 16.0194 23.2787 15.5335C23.7646 15.5834 24.2498 15.6333 24.745 15.6832C24.6863 15.2291 24.6863 14.7707 24.745 14.3165Z" fill="#FF4B55"/>
</g>
<defs>
<clipPath id="clip0">
<rect width="29" height="19" fill="white" transform="translate(0.244995)"/>
</clipPath>
</defs>
</svg>
